# xmcd
#
# Track frame offsets:
#	150
#	20545
#	40719
#	63789
#	94237
#	135708
#	151692
#	178974
#	193251
#	212740
#	231197
#	244776
#	262274
#	281469
#
# Disc length: 4014 seconds
#
# Revision: 2886352873
# Processed by: cddbd v1.5.2PL0 Copyright (c) Steve Scherf et al.
# Submitted via: EZCDAudioConverter 8.5.0.1
#
DISCID=c80fac0e
DTITLE=Kenny Chesney - Live In No Shoes Nation
DYEAR=2017
DGENRE=Country
TTITLE0=Kenny Chesney - Flora-Bama [Live]
TTITLE1=Kenny Chesney - Summertime [Live]
TTITLE2=Kenny Chesney and Taylor Swift - Big Star [Live]
TTITLE3=Kenny Chesney - Boston [Live]
TTITLE4=Kenny Chesney and Eric Church - When I See This Bar [Live]
TTITLE5=Kenny Chesney - No Shoes, No Shirt, No Problems [Live]
TTITLE6=Kenny Chesney - Anything But Mine [Live]
TTITLE7=Kenny Chesney and Mac Mcanally - Down The Road [Live]
TTITLE8=Kenny Chesney - Guitars And Tiki Bars [Live]
TTITLE9=Kenny Chesney - Hemingway's Whiskey [Live]
TTITLE10=Kenny Chesney and Zac Brown Band - Everybody Wants To Go To Heaven [Liv
TTITLE10=e]
TTITLE11=Kenny Chesney - I'm Alive [Live]
TTITLE12=Kenny Chesney and Old Dominion - Save It For A Rainy Day [Live]
TTITLE13=Kenny Chesney - Pirate Flag [Live]
EXTD=
EXTT0=
EXTT1=
EXTT2=
EXTT3=
EXTT4=
EXTT5=
EXTT6=
EXTT7=
EXTT8=
EXTT9=
EXTT10=
EXTT11=
EXTT12=
EXTT13=
PLAYORDER=
